# xmcd
#
# Track frame offsets:
#	150
#	19910
#	41062
#	64525
#	82065
#	94745
#	111012
#	131130
#	158235
#	178870
#	192725
#	214412
#	232092
#	259232
#	275982
#	293115
#	314167
#
# Disc length: 4386
#
# Revision: 2
# Processed by: cddbd v1.5.1PL0 Copyright (c) Steve Scherf et al.
# Submitted via: EasyCDDAExtractor 4.5.0.2
# Normalized: r0:TDELIM( - ),TSWAP
#
DISCID=17112011
DTITLE=Dreams CD 4
DYEAR=1900
DGENRE=Folk
TTITLE0=MORT SHUMAN - SORROW
TTITLE1=EROS RAMAZZOTI - UN' ALTRA TE
TTITLE2=LUCIO DALLA - CARUZO
TTITLE3=DEMIS ROUSSOS - MY FRIEND THE WIND
TTITLE4=DUSTY SPRINGFIELD - YOU DON'T HAVE TO SAY YOU LOVE ME
TTITLE5=THE RIGHTEOUS BROTHERS - UNCHAINED MELODY
TTITLE6=DIANA ROSS and LIONEL RICHIE - ENDLESS LOVE
TTITLE7=JENNIFER RUSH - THE POWER OF LOVE
TTITLE8=BERTIE HIGGINS - CASABLANCA
TTITLE9=JOHNY LOGAN - HOLD ME NOW
TTITLE10=BLACK - WONDREFUL LIFE
TTITLE11=DARYL HALL and JOHN OATES - ONE ON ONE
TTITLE12=PAUL YOUNG - WHEREVER I LAY MY HAT
TTITLE13=JOE COCKER - MANY RIVERS TO CROSS
TTITLE14=LEONARD COHEN - SUZANNE
TTITLE15=NIGHT ARK - YOU GOT A FRIEND
TTITLE16=SIDNEY BECHET - PETIT FLEUR
EXTD=
EXTT0=
EXTT1=
EXTT2=
EXTT3=
EXTT4=
EXTT5=
EXTT6=
EXTT7=
EXTT8=
EXTT9=
EXTT10=
EXTT11=
EXTT12=
EXTT13=
EXTT14=
EXTT15=
EXTT16=
PLAYORDER=
